<?xml version="1.0" encoding="utf-8"?>
<!-- Generator: Adobe Illustrator 24.2.3, SVG Export Plug-In . SVG Version: 6.00 Build 0)  -->
<svg version="1.1" id="Layer_1" xmlns="http://www.w3.org/2000/svg" xmlns:xlink="http://www.w3.org/1999/xlink" x="0px" y="0px"
	 viewBox="0 0 674 636" style="enable-background:new 0 0 674 636;" xml:space="preserve">
<style type="text/css">
	.st0{fill:#2C95F1;}
</style>
<g>
	<path class="st0" d="M125.4,428.5c6-0.2,12-0.3,18,0c4.1,0.3,5.3-1,5.2-5.2c-0.2-28.3-0.1-56.6-0.1-84.9c0-1.5-0.6-3.2,0.8-5.1
		c14.2,25.3,28.3,50.2,42.7,75.7c15.1-25.4,29.8-50.3,44.6-75.2c0.8,30.2,0.8,60,0.7,89.8c0,3.5,0.6,5.1,4.6,4.8
		c6.3-0.4,12.7-0.2,19,0c2.7,0.1,3.8-0.7,3.8-3.6c-0.1-45.5-0.1-90.9,0-136.4c0-3.2-1.2-3.9-4.1-3.8c-7.2,0.2-14.3,0.2-21.5,0
		c-3.4-0.1-5.4,0.9-7.1,4c-6,10.7-12.3,21.3-18.6,31.9c-6.8,11.6-13.6,23.1-20.4,34.7c-2.1-1.2-2.6-3.1-3.4-4.7
		C178,330,166.4,309.4,155,288.7c-1.7-3-3.5-4.3-7-4.1c-7.7,0.3-15.3,0.2-23,0c-2.8-0.1-3.7,0.8-3.7,3.7c0.1,45.5,0.1,90.9,0,136.4
		C121.3,428,122.6,428.5,125.4,428.5z"/>
	<path class="st0" d="M473.5,483c-6.5,0.2-13,0.4-19.5-0.1c-5.2-0.4-7.9,1.5-10.5,6c-12.2,21.5-24.9,42.9-37.9,65
		c-1.3-2.2-2.2-3.6-3-5c-11.6-20.7-23.3-41.5-34.8-62.3c-1.5-2.7-3.1-3.8-6.2-3.7c-7.5,0.2-15,0.3-22.5,0c-4-0.2-5,1.2-4.9,5
		c0.2,24.5,0.1,49,0.1,73.5c0,20.2,0.1,40.3-0.1,60.5c0,4,1.2,5.2,5.1,5c5.5-0.3,11-0.3,16.5,0c4.4,0.3,5.9-0.8,5.9-5.6
		c-0.3-28.3-0.1-56.6-0.1-85c0-1.5-0.6-3.2,0.8-4.9c14.2,25.1,28.3,50,42.7,75.5c15.1-25.4,29.9-50.2,45.4-76.3c0,3.2,0,4.8,0,6.4
		c0,28.2,0.1,56.3-0.1,84.5c0,4.5,1.3,5.7,5.6,5.4c6-0.4,12-0.2,18,0c2.7,0.1,3.8-0.7,3.8-3.6c-0.1-45.5-0.1-91,0-136.4
		C477.6,483.5,476.3,483,473.5,483z"/>
	<path class="st0" d="M201.9,125.2c11.2,0,22.3,0.3,33.5-0.1c4.5-0.2,5.6,1.4,6,5.5c2.2,19.6,10,36.7,22.4,51.9
		c25.1,30.4,68.5,42.8,105.8,30.4c41.8-13.9,70.7-54.7,67.8-99.7c-1.4-21.7-9-40.7-22.7-57.4c-7.3-8.8-16.1-15.8-25.9-22.2
		c0.9-0.7,1.1-1.1,1.4-1.1c18.5-0.1,37-0.1,55.5-0.1c2.8,0,3,1.7,3.3,3.9c0.6,5.3,2.6,6.5,7.3,4.5c5.9-2.6,11.7-5.5,17.7-8.2
		c2.7-1.2,4.3-3,4.4-6.1c0.1-3-1.3-5-4-6.3c-6.2-2.9-12.3-6-18.5-8.7c-4.1-1.8-6.6-0.4-6.7,4.2c-0.1,4.2-1.9,4.8-5.5,4.8
		c-33-0.1-66,0-98.9-0.1c-6.8,0-13.6,0.2-20.4,1.2c-21.4,3.4-39.9,12.8-55,28.1C253,66.1,243.5,85.9,241.2,109
		c-0.3,3.3-1.7,4.3-5.1,4.3c-11.7-0.2-23.3-0.1-35,0c-4.8,0-7.7,3.3-6.6,7.2C195.6,124,198.4,125.2,201.9,125.2z M334.1,112.3
		c-5.7-2.6-11.4-5.4-17.2-8c-4.4-1.9-7-0.6-7.1,4.2c-0.1,4.3-2,4.8-5.6,4.7c-15.3-0.2-30.7-0.3-46,0.1c-5.2,0.1-5.8-1.8-5.1-6.1
		c5.2-30.7,21.4-53.6,49.7-66.8C353.8,16.9,413,46.7,424,101.7c8.9,44.6-16.3,86.6-59.6,100.1c-47.6,14.8-97.8-14.1-109.6-62.4
		c-0.8-3.4-1.1-6.9-1.8-10.3c-0.7-3.2,0.7-4,3.7-4c8.2,0.2,16.3,0.1,24.5,0.1c8,0,16,0.1,24,0c2.6,0,4.2,0.2,4.5,3.6
		c0.4,5.8,2.6,6.8,8,4.4c5.5-2.4,10.9-5,16.4-7.4c3-1.3,5-3.2,5.1-6.7C339.2,115.5,337.1,113.7,334.1,112.3z"/>
	<path class="st0" d="M388.9,399.8c2.9,0,4.5,0.9,5.6,3.6c3.2,7.3,6.7,14.5,10,21.8c0.9,1.9,1.7,3.3,4.3,3.3c9-0.2,18-0.1,27.8-0.1
		c-1.1-2.4-1.9-4.1-2.6-5.7c-19.3-40.9-38.6-81.8-58-122.7c-2.4-5.1-3.4-11.9-7.9-14.6c-4.5-2.7-11.1-0.4-16.7-0.8
		c-3.4-0.3-5,1.2-6.4,4.1c-21.3,45.3-42.7,90.5-64,135.8c-0.5,1.1-1.6,2.2-0.8,3.9c8.4,0,16.9-0.1,25.4,0.1c3.1,0.1,4.8-0.9,6-3.8
		c3.1-7.2,6.7-14.1,9.8-21.3c1.2-2.7,2.7-3.6,5.6-3.6C347.6,400,368.2,400,388.9,399.8z M335.3,373.1c7.4-15.8,14.8-31.6,22.6-48.3
		c7.9,17.1,15.3,33.2,22.7,49.3c0.3,0.6,0.3,1.2,0.6,2.2c-14.9,0-29.6,0-44.2,0C334,376.5,334.3,375.2,335.3,373.1z"/>
	<path class="st0" d="M517.3,393.7c3.6,10.3,6.7,20.9,10,31.4c0.5,1.6,0.6,3.4,2.9,3.4c9.3,0,18.5,0,28.4,0
		c-6.1-13.4-9.9-26.8-14.7-39.8c-3.7-10.1-8-19.9-20-24.3c1.1-0.7,1.4-0.9,1.7-1.1c15.3-5.8,28-23.8,24.3-44.6
		c-3.3-19-18.7-32.6-38.8-33.3c-19-0.7-38-0.1-57-0.2c-2.8,0-3.2,1.3-3.2,3.7c0,45.3,0,90.6,0,136c0,2.8,0.8,3.8,3.7,3.8
		c5.8-0.2,11.7-0.4,17.5,0c4.8,0.3,6.5-0.8,6.4-6.1c-0.4-15.7-0.2-31.3-0.1-47c0-1.8-0.8-3.8,2.5-4.2
		C499.5,369.2,511.2,376.1,517.3,393.7z M481.4,350.2c-2.6,0.1-3-1.2-3-3.4c0.1-6.5,0-13,0-19.4c0-6.3,0-12.6,0-18.9
		c0-1.5-0.3-3.2,2-3.1c7.9,0.3,16-1,23.8,0.8c12.2,2.7,18.9,11.8,18.1,24.3c-0.6,10.2-9.6,18.7-21.1,19.5
		C494.7,350.4,488,350,481.4,350.2z"/>
	<path class="st0" d="M310.7,486.7c0-2.8-0.9-3.8-3.7-3.7c-6.7,0.2-13.3,0.3-20,0c-3.9-0.2-4.6,1.3-4.6,4.8
		c0.1,23.8,0.1,47.6,0.1,71.4c0,5.3-0.3,10.6-1.5,15.9c-3.5,15-14.2,25-28.3,26.3c-18.9,1.7-31.6-5.2-38.2-20.5
		c-3.2-7.4-3.7-15.2-3.8-23c-0.1-23.3-0.1-46.6,0-69.9c0-4-1.2-5.1-5.1-4.9c-5.8,0.3-11.7,0.4-17.5,0c-4.1-0.3-5.5,1-5.5,5.2
		c0.2,13.5,0.1,27,0.1,40.5c0.2,0,0.3,0,0.5,0c0,13.3-0.8,26.7,0.1,39.9c3,42.3,37.2,67.6,78.7,59c27.8-5.7,47.3-30.1,48.1-59.4
		C311,541,310.6,513.9,310.7,486.7z"/>
	<path class="st0" d="M101.2,385.4c-1.6-15.6-10.5-25.8-23.7-32.9c-10-5.4-20.9-8.5-31.2-13.2c-4.4-2-8.7-4.3-11.8-8.1
		c-3.5-4.3-4.1-9-1.6-14c2.6-5.1,7.1-8,12.6-8.9c10.7-1.9,20.6,0.2,29,7.2c2.6,2.2,4.4,2.6,6.9-0.3c4.2-4.7,8.7-9.2,13.4-13.4
		c3-2.6,2-4-0.5-5.9c-11.4-8.6-24-13.5-38.9-13.8c-14.1-1.3-27.5,2.3-39,11.6c-20.7,16.9-17.7,49.2,5.8,64.4
		c8.5,5.5,17.9,8.7,27.2,12.2c6.2,2.4,12.5,4.7,17.7,9.1c7.1,6.1,6.8,15.9-0.8,21.4c-4.1,3-9,4.4-14.1,4.2
		c-11.6-0.5-22.3-3.7-31.4-11.2c-2.3-1.9-3.5-1.3-5.3,0.6c-4.1,4.4-8.4,8.6-12.6,12.8c-4.6,4.6-4.6,4.7,0.7,8.6
		c20.7,15.3,43.8,19.4,68.1,12.3C92.2,422,103.2,404.7,101.2,385.4z"/>
	<path class="st0" d="M557.4,483.2c-15.8-0.3-31.7,0.1-47.5-0.2c-4.2-0.1-5.6,0.8-5.6,5.4c0.3,22.2,0.1,44.3,0.1,66.5
		c0,22.3,0.1,44.6-0.1,67c0,3.7,0.7,5.4,4.8,5.1c6.1-0.4,12.3-0.3,18.5,0c3.6,0.2,4.9-0.8,4.8-4.7c-0.3-12.8,0-25.7-0.2-38.5
		c0-3,0.8-4,3.9-4c8.7,0.1,17.3,0.3,26-0.5c26.4-2.5,46.4-28.1,42.4-54.3C601,500.6,581.9,483.6,557.4,483.2z M551.3,558.2
		c-4.8,0.1-9.7-0.3-14.5,0.1c-4,0.3-4.7-1.3-4.5-4.8c0.2-7.5,0.1-15,0.1-22.5c0-7.8,0.1-15.7,0-23.5c0-2.5,0.6-3.6,3.3-3.5
		c5.5,0.2,11-0.1,16.5,0.2c14.4,0.6,25.4,12.7,25.2,27.6C577.2,545.8,565.1,558,551.3,558.2z"/>
	<path class="st0" d="M119.5,483.2c-16-0.3-32,0-48-0.2c-4.1-0.1-5.4,0.9-5.3,5.2c0.2,22.1,0.1,44.3,0.1,66.4
		c0,22.6,0,45.3-0.1,67.9c0,3.1,0.6,4.5,4.1,4.4c6.5-0.3,13-0.3,19.5,0c3.6,0.1,4.5-1.2,4.5-4.6c-0.2-12.8,0-25.6-0.1-38.5
		c0-3,0.9-4,4-4c8.5,0,17,0.3,25.5-0.5c28.2-2.7,48.4-30.3,42.3-57.9C160.9,499.1,142.3,483.6,119.5,483.2z M138.3,537.8
		c-2.9,11.5-13.7,20.2-25.2,20.4c-5.2,0.1-10.3-0.1-15.5,0.1c-2.6,0.1-3.4-0.9-3.4-3.4c0.1-8,0-16,0-23.9c0-7.6,0-15.3,0-22.9
		c0-1.5-0.8-3.9,1.9-3.8c9.8,0.4,19.9-2,29.3,3.3C135.9,513.5,141.3,525.8,138.3,537.8z"/>
	<path class="st0" d="M674.4,288.6c0.1-2.6-0.7-3.5-3.4-3.5c-33.5,0.1-67,0.1-100.5,0c-2.7,0-3.4,0.9-3.4,3.5
		c0.1,5.8,0.2,11.7,0,17.5c-0.1,3.1,1,4,4,3.9c9.8-0.2,19.7,0.3,29.5-0.2c5.3-0.3,6.3,1.5,6.2,6.4c-0.2,35.8-0.1,71.6-0.2,107.5
		c0,3.6,0.7,5,4.7,4.8c6.5-0.3,13-0.3,19.5,0c3.6,0.2,4.4-1.1,4.4-4.5c-0.2-18.2-0.1-36.3-0.1-54.5c0-18.2,0.1-36.3-0.1-54.5
		c-0.1-4.3,1.2-5.3,5.3-5.2c10,0.3,20,0,30,0.2c3,0,4.1-0.8,4-3.9C674.2,300.2,674.3,294.4,674.4,288.6z"/>
</g>
</svg>
