<?xml version="1.0" encoding="utf-8"?>
<!-- Generator: Adobe Illustrator 24.2.3, SVG Export Plug-In . SVG Version: 6.00 Build 0)  -->
<svg version="1.1" id="Layer_1" xmlns="http://www.w3.org/2000/svg" xmlns:xlink="http://www.w3.org/1999/xlink" x="0px" y="0px"
	 viewBox="0 0 100 100" style="enable-background:new 0 0 100 100;" xml:space="preserve">
<style type="text/css">
	.st0{fill:#7C3AF0;}
	.st1{opacity:0.2;}
	.st2{fill:#FFFFFF;}
</style>
<rect class="st0" width="100" height="100"/>
<g>
	<g class="st1">
		<path d="M18.8,53.6c2.7,0,5.3,0.1,8,0c1.1,0,1.3,0.3,1.4,1.3c0.5,4.7,2.4,8.8,5.4,12.4c6,7.3,16.4,10.2,25.3,7.3
			c10-3.3,16.9-13.1,16.2-23.9C74.9,45.6,73,41,69.8,37c-1.7-2.1-3.9-3.8-6.2-5.3c0.2-0.2,0.3-0.3,0.3-0.3c4.4,0,8.9,0,13.3,0
			c0.7,0,0.7,0.4,0.8,0.9c0.1,1.3,0.6,1.6,1.7,1.1c1.4-0.6,2.8-1.3,4.2-2c0.6-0.3,1-0.7,1.1-1.5c0-0.7-0.3-1.2-1-1.5
			c-1.5-0.7-2.9-1.4-4.4-2.1c-1-0.4-1.6-0.1-1.6,1c0,1-0.5,1.1-1.3,1.1c-7.9,0-15.8,0-23.7,0c-1.6,0-3.3,0-4.9,0.3
			c-5.1,0.8-9.5,3.1-13.2,6.7c-3.9,3.9-6.2,8.7-6.7,14.2c-0.1,0.8-0.4,1-1.2,1c-2.8,0-5.6,0-8.4,0c-1.1,0-1.8,0.8-1.6,1.7
			C17.3,53.3,18,53.6,18.8,53.6z M50.5,50.5c-1.4-0.6-2.7-1.3-4.1-1.9c-1.1-0.5-1.7-0.1-1.7,1c0,1-0.5,1.1-1.3,1.1
			c-3.7,0-7.3-0.1-11,0c-1.2,0-1.4-0.4-1.2-1.5c1.2-7.3,5.1-12.8,11.9-16c12.2-5.6,26.4,1.5,29,14.7c2.1,10.7-3.9,20.7-14.3,24
			C46.3,75.5,34.3,68.6,31.5,57c-0.2-0.8-0.3-1.7-0.4-2.5c-0.2-0.8,0.2-1,0.9-1c2,0,3.9,0,5.9,0c1.9,0,3.8,0,5.7,0
			c0.6,0,1,0,1.1,0.9c0.1,1.4,0.6,1.6,1.9,1.1c1.3-0.6,2.6-1.2,3.9-1.8c0.7-0.3,1.2-0.8,1.2-1.6C51.7,51.3,51.2,50.9,50.5,50.5z"/>
	</g>
	<g>
		<path class="st2" d="M17.8,52.6c2.7,0,5.3,0.1,8,0c1.1,0,1.3,0.3,1.4,1.3c0.5,4.7,2.4,8.8,5.4,12.4c6,7.3,16.4,10.2,25.3,7.3
			c10-3.3,16.9-13.1,16.2-23.9C73.9,44.6,72,40,68.8,36c-1.7-2.1-3.9-3.8-6.2-5.3c0.2-0.2,0.3-0.3,0.3-0.3c4.4,0,8.9,0,13.3,0
			c0.7,0,0.7,0.4,0.8,0.9c0.1,1.3,0.6,1.6,1.7,1.1c1.4-0.6,2.8-1.3,4.2-2c0.6-0.3,1-0.7,1.1-1.5c0-0.7-0.3-1.2-1-1.5
			c-1.5-0.7-2.9-1.4-4.4-2.1c-1-0.4-1.6-0.1-1.6,1c0,1-0.5,1.1-1.3,1.1c-7.9,0-15.8,0-23.7,0c-1.6,0-3.3,0-4.9,0.3
			c-5.1,0.8-9.5,3.1-13.2,6.7c-3.9,3.9-6.2,8.7-6.7,14.2c-0.1,0.8-0.4,1-1.2,1c-2.8,0-5.6,0-8.4,0c-1.1,0-1.8,0.8-1.6,1.7
			C16.3,52.3,17,52.6,17.8,52.6z M49.5,49.5c-1.4-0.6-2.7-1.3-4.1-1.9c-1.1-0.5-1.7-0.1-1.7,1c0,1-0.5,1.1-1.3,1.1
			c-3.7,0-7.3-0.1-11,0c-1.2,0-1.4-0.4-1.2-1.5c1.2-7.3,5.1-12.8,11.9-16c12.2-5.6,26.4,1.5,29,14.7c2.1,10.7-3.9,20.7-14.3,24
			C45.3,74.5,33.3,67.6,30.5,56c-0.2-0.8-0.3-1.7-0.4-2.5c-0.2-0.8,0.2-1,0.9-1c2,0,3.9,0,5.9,0c1.9,0,3.8,0,5.7,0
			c0.6,0,1,0,1.1,0.9c0.1,1.4,0.6,1.6,1.9,1.1c1.3-0.6,2.6-1.2,3.9-1.8c0.7-0.3,1.2-0.8,1.2-1.6C50.7,50.3,50.2,49.9,49.5,49.5z"/>
	</g>
</g>
</svg>
